<?xml version="1.0" encoding="UTF-8" standalone="no"?>
<svg
  xmlns:dc="http://purl.org/dc/elements/1.1/"
  xmlns:cc="http://creativecommons.org/ns#"
  xmlns:rdf="http://www.w3.org/1999/02/22-rdf-syntax-ns#"
  xmlns="http://www.w3.org/2000/svg"
  id="svg5454"
  version="1.1"
  viewBox="0 0 86.201248 18.282707"
  height="18.282707mm"
  width="86.201248mm">
  <defs
     id="defs5448" />
  <metadata
     id="metadata5451">
    <rdf:RDF>
      <cc:Work
         rdf:about="">
        <dc:format>image/svg+xml</dc:format>
        <dc:type
           rdf:resource="http://purl.org/dc/dcmitype/StillImage" />
        <dc:title/>
      </cc:Work>
    </rdf:RDF>
  </metadata>
  <g
     transform="translate(161.0292,-24.031265)"
     id="layer1">
    <g
       id="g46"
       transform="matrix(0.26458333,0,0,0.26458333,-225.00545,-232.85269)">
      <g
         id="g10">
        <g
           id="g8">
          <polygon
             style="fill:#546472"
             id="polygon6"
             points="260.4,970.9 495.7,970.9 477.2,1040 241.8,1040 "
             class="st0" />
        </g>
      </g>
      <g
         id="g30">
        <polygon
           style="fill:#00ae4e"
           id="polygon12"
           points="561.9,992.2 540.5,992.2 546.2,970.9 567.6,970.9 "
           class="st1" />
        <polygon
           style="fill:#00ae4e"
           id="polygon14"
           points="555.5,1016.1 534.1,1016.1 539.8,994.7 561.2,994.7 "
           class="st1" />
        <polygon
           style="fill:#00ae4e"
           id="polygon16"
           points="549.1,1040 527.7,1040 533.4,1018.6 554.8,1018.6 "
           class="st1" />
        <polygon
           style="fill:#00ae4e"
           id="polygon18"
           points="538,992.2 516.6,992.2 522.4,970.9 543.7,970.9 "
           class="st1" />
        <polygon
           style="fill:#00ae4e"
           id="polygon20"
           points="531.6,1016.1 510.2,1016.1 516,994.7 537.3,994.7 "
           class="st1" />
        <polygon
           style="fill:#00ae4e"
           id="polygon22"
           points="525.2,1040 503.9,1040 509.6,1018.6 530.9,1018.6 "
           class="st1" />
        <polygon
           style="fill:#00ae4e"
           id="polygon24"
           points="514.1,992.2 492.8,992.2 498.5,970.9 519.9,970.9 "
           class="st1" />
        <polygon
           style="fill:#00ae4e"
           id="polygon26"
           points="507.7,1016.1 486.4,1016.1 492.1,994.7 513.5,994.7 "
           class="st1" />
        <polygon
           style="fill:#00ae4e"
           id="polygon28"
           points="501.3,1040 480,1040 485.7,1018.6 507.1,1018.6 "
           class="st1" />
      </g>
      <g
         id="g44">
        <path
           style="fill:#ffffff"
           id="path32"
           d="m 296.2,1028.5 -0.6,-10.4 h -13.3 l -6.9,10.4 h -11.1 l 30.3,-43.9 h 8.9 l 3.9,43.9 z m -1.2,-27 c 0,-1 -0.1,-2.3 0,-3.6 h -0.1 c -0.6,1.2 -1.4,2.7 -2,3.6 l -5.1,8.4 h 7.4 z"
           class="st2" />
        <path
           style="fill:#ffffff"
           id="path34"
           d="m 352.1,994.6 c -3.1,-1.7 -5.5,-2.3 -9.1,-2.3 -10.5,0 -17,8.2 -17.9,16 -0.8,7.2 2.5,12.3 10,12.3 2.6,0 5.5,-0.5 9.2,-2.1 l 0.4,7.4 c -5.3,2.4 -9.8,3.2 -14.9,3.2 -12.3,0 -17.3,-9.1 -16.2,-18.7 1.9,-16.8 16.1,-26.2 30.6,-26.2 3.6,0 7.6,0.6 10.6,2 z"
           class="st2" />
        <path
           style="fill:#ffffff"
           id="path36"
           d="m 390.5,993 h -11.7 l -11.7,35.5 H 356.8 L 368.5,993 h -12.9 l 2.7,-8.3 h 36.3 z"
           class="st2" />
        <path
           style="fill:#ffffff"
           id="path38"
           d="M 395.3,1028.5 H 385 l 14.5,-43.8 h 10.3 z"
           class="st2" />
        <path
           style="fill:#ffffff"
           id="path40"
           d="m 432.6,1028.5 -0.6,-10.4 h -13.3 l -6.9,10.4 H 400.7 L 431,984.6 h 8.9 l 3.9,43.9 z m -1.2,-27 c 0,-1 -0.1,-2.3 0,-3.6 h -0.1 c -0.6,1.2 -1.4,2.7 -2,3.6 l -5.1,8.4 h 7.4 z"
           class="st2" />
        <path
           style="fill:#ffffff"
           id="path42"
           d="m 458.7,1001.9 c -5.3,0 -8.5,-3.9 -7.9,-9.1 0.6,-5.2 4.7,-9.1 10,-9.1 5.2,0 8.7,3.9 8.1,9.1 -0.6,5.2 -5,9.1 -10.2,9.1 z m 1.8,-16.5 c -4,0 -7.3,3.2 -7.8,7.4 -0.5,4.1 2.1,7.4 6.1,7.4 4,0 7.3,-3.2 7.8,-7.4 0.5,-4.2 -2,-7.4 -6.1,-7.4 z m 0.7,12.4 c -1.3,-2.6 -1.9,-4.2 -2.3,-4.2 h -0.5 l -0.5,4.2 H 456 l 1.1,-10.2 h 2.9 c 2.3,0 3.3,1.2 3.1,2.8 -0.2,1.7 -1.5,2.4 -2.5,2.7 v 0 c 0.4,0.2 1.4,2.1 2.6,4.7 z m -1.7,-8.7 h -0.7 l -0.3,3 h 0.6 c 1,0 2,-0.5 2.1,-1.5 0.1,-1 -0.4,-1.5 -1.7,-1.5 z"
           class="st2" />
      </g>
    </g>
  </g>
</svg>
